<?xml version="1.0" encoding="UTF-8"?>
<!DOCTYPE svg PUBLIC "-//W3C//DTD SVG 1.1//EN" "http://www.w3.org/Graphics/SVG/1.1/DTD/svg11.dtd">
<!-- Creator: CorelDRAW X7 -->
<svg xmlns="http://www.w3.org/2000/svg" xml:space="preserve" width="0.833331in" height="0.833331in" version="1.1" style="shape-rendering:geometricPrecision; text-rendering:geometricPrecision; image-rendering:optimizeQuality; fill-rule:evenodd; clip-rule:evenodd"
viewBox="0 0 639 639"
 xmlns:xlink="http://www.w3.org/1999/xlink">
 <defs>
  <style type="text/css">
   <![CDATA[
    .fil4 {fill:#4F5C73}
    .fil3 {fill:#60968A}
    .fil1 {fill:#60968A;fill-rule:nonzero}
    .fil0 {fill:#76C3B0;fill-rule:nonzero}
    .fil2 {fill:#E1E1D2;fill-rule:nonzero}
   ]]>
  </style>
 </defs>
 <g id="Слой_x0020_1">
  <metadata id="CorelCorpID_0Corel-Layer"/>
  <path id="path14" class="fil0" d="M639 320c0,176 -143,319 -319,319 -177,0 -320,-143 -320,-319 0,-177 143,-320 320,-320 176,0 319,143 319,320z"/>
  <g id="_1410031025536">
   <path id="path16" class="fil1" d="M320 559c-122,0 -220,-98 -220,-219 0,-121 98,-220 220,-220 121,0 219,99 219,220 0,121 -98,219 -219,219l0 0zm0 -400c-100,0 -180,81 -180,181 0,99 80,179 180,179 99,0 179,-80 179,-179 0,-100 -80,-181 -179,-181z"/>
  </g>
  <path id="path20" class="fil2" d="M320 100c-122,0 -220,98 -220,220 0,121 98,219 220,219 121,0 219,-98 219,-219 0,-122 -98,-220 -219,-220zm0 40c99,0 179,80 179,180 0,99 -80,179 -179,179 -100,0 -180,-80 -180,-179 0,-100 80,-180 180,-180z"/>
  <path class="fil3" d="M282 423l-77 -77c-9,-10 -9,-25 0,-35l77 -77c10,-10 25,-10 35,0 10,9 9,25 0,34 -12,12 -23,23 -36,35l136 0c6,0 13,3 18,8 10,12 8,32 -6,41 -3,1 -8,3 -12,3l-136 0c-2,-2 35,34 36,34 9,10 10,26 0,35 -10,9 -25,9 -35,-1l0 0z"/>
  <path class="fil4" d="M282 414l-77 -77c-10,-10 -10,-25 0,-35l77 -77c10,-10 25,-10 35,0 10,9 9,25 0,34 -13,12 -24,23 -36,35l135 0c7,0 14,3 19,8 10,12 8,33 -6,41 -4,1 -8,3 -13,3l-135 0c-2,-3 35,34 36,34 9,9 10,26 0,35 -10,9 -25,9 -35,-1l0 0z"/>
 </g>
</svg>
