<?xml version="1.0" encoding="UTF-8"?>
<!DOCTYPE svg PUBLIC "-//W3C//DTD SVG 1.1//EN" "http://www.w3.org/Graphics/SVG/1.1/DTD/svg11.dtd">
<!-- Creator: CorelDRAW X7 -->
<svg xmlns="http://www.w3.org/2000/svg" xml:space="preserve" width="1.2948in" height="0.979169in" version="1.1" style="shape-rendering:geometricPrecision; text-rendering:geometricPrecision; image-rendering:optimizeQuality; fill-rule:evenodd; clip-rule:evenodd"
viewBox="0 0 1295 979"
 xmlns:xlink="http://www.w3.org/1999/xlink">
 <defs>
  <style type="text/css">
   <![CDATA[
    .str0 {stroke:#2B2A29;stroke-width:20.8346}
    .str1 {stroke:#2B2A29;stroke-width:6.94488}
    .fil1 {fill:#2B2A29}
    .fil0 {fill:white}
   ]]>
  </style>
 </defs>
 <g id="Слой_x0020_1">
  <metadata id="CorelCorpID_0Corel-Layer"/>
  <g id="g3">
   <path id="path5" class="fil0 str0" d="M1222 10l-1149 0c-34,0 -63,29 -63,63l0 833c0,35 29,63 63,63l1149 0c34,0 62,-28 62,-63l0 -833c0,-34 -28,-63 -62,-63zm-768 444l-205 205c-18,18 -44,24 -66,15 -44,-19 -52,-73 -22,-103l117 -117c24,-24 24,-63 0,-88l-118 -117c-30,-30 -22,-84 22,-103 23,-10 49,-3 66,14l205 206c13,12 19,28 19,43 0,16 -5,33 -18,45zm457 223l-375 0c-34,0 -62,-28 -62,-62 0,-35 28,-63 62,-63l375 0c35,0 63,28 63,63 0,34 -28,62 -63,62z"/>
  </g>
  <g id="g7">
  </g>
  <g id="g9">
  </g>
  <g id="g11">
  </g>
  <g id="g13">
  </g>
  <g id="g15">
  </g>
  <g id="g17">
  </g>
  <g id="g19">
  </g>
  <g id="g21">
  </g>
  <g id="g23">
  </g>
  <g id="g25">
  </g>
  <g id="g27">
  </g>
  <g id="g29">
  </g>
  <g id="g31">
  </g>
  <g id="g33">
  </g>
  <g id="g35">
  </g>
  <path class="fil1 str1" d="M453 366l-205 -206c-17,-17 -43,-24 -66,-14 -44,19 -52,73 -22,103l118 117c24,25 24,64 0,88l-117 117c-30,30 -22,84 22,103 22,9 48,3 66,-15l205 -205c13,-12 18,-29 18,-45 0,-15 -6,-31 -19,-43z"/>
  <path class="fil1 str1" d="M911 552l-375 0c-34,0 -62,28 -62,63 0,34 28,62 62,62l375 0c35,0 63,-28 63,-62 0,-35 -28,-63 -63,-63z"/>
 </g>
</svg>
