<?xml version="1.0" encoding="UTF-8"?>
<!DOCTYPE svg PUBLIC "-//W3C//DTD SVG 1.1//EN" "http://www.w3.org/Graphics/SVG/1.1/DTD/svg11.dtd">
<!-- Creator: CorelDRAW X7 -->
<svg xmlns="http://www.w3.org/2000/svg" xml:space="preserve" width="8.5in" height="11in" version="1.1" style="shape-rendering:geometricPrecision; text-rendering:geometricPrecision; image-rendering:optimizeQuality; fill-rule:evenodd; clip-rule:evenodd"
viewBox="0 0 8500 11000"
 xmlns:xlink="http://www.w3.org/1999/xlink">
 <defs>
  <style type="text/css">
   <![CDATA[
    .str0 {stroke:#2B2A29;stroke-width:196.839}
    .fil0 {fill:#FEFEFE}
    .fil1 {fill:#2B2A29;fill-rule:nonzero}
   ]]>
  </style>
 </defs>
 <g id="Слой_x0020_1">
  <metadata id="CorelCorpID_0Corel-Layer"/>
  <path class="fil0 str0" d="M5628 6616c-530,-564 -1015,-1220 -1444,-1952 -180,-304 -367,-633 -514,-990 -18,-46 -36,-91 -53,-135l-900 0c-178,0 -323,143 -323,322l0 5872c0,179 145,322 323,322l3046 0c178,0 322,-143 322,-322l0 -2815c-21,-8 -43,-16 -64,-25 -149,-64 -283,-156 -393,-277l0 0z"/>
  <path class="fil0 str0" d="M-805 9085l2238 881c109,43 227,-39 227,-156l0 -6006c0,-160 -98,-305 -246,-363l-2229 -878c-114,-44 -238,39 -238,162l0 5996c0,161 99,306 248,364z"/>
  <path class="fil0 str0" d="M8600 4983c-367,588 -798,1143 -1282,1645 -112,117 -243,206 -389,269 -37,15 -73,28 -110,40l0 2776c0,160 98,303 247,363l2228 877c114,43 238,-40 238,-161l0 -6000c0,-160 -99,-303 -247,-363l-292 -113c-126,233 -261,455 -393,667l0 0z"/>
  <path class="fil0 str0" d="M6113 6159c101,107 233,161 365,161 122,0 245,-46 341,-135 7,-6 13,-13 18,-19 451,-467 853,-984 1198,-1535 112,-179 227,-367 335,-561 279,-510 507,-1066 507,-1637 0,-3798 -6216,-2687 -4539,1107 122,271 273,534 421,789 377,644 818,1256 1327,1803 8,7 19,18 27,27l0 0z"/>
  <path class="fil1" d="M186 7811l427 0 0 180 419 0 0 407 -923 0c-101,0 -191,-18 -263,-52 -93,-46 -168,-114 -228,-205 -58,-92 -88,-187 -88,-286l0 -44 426 0c1,10 1,16 1,20 0,52 18,91 51,119 33,27 80,41 141,41l37 0 0 -180 0 0z"/>
  <path id="_1" class="fil1" d="M-52 7226l1084 0 0 406 -1084 0 0 -406zm-482 202c0,-56 20,-104 57,-143 39,-41 86,-61 138,-61 57,0 104,19 139,56 37,39 54,88 54,148 0,58 -17,107 -54,146 -35,38 -82,56 -139,56 -52,0 -99,-19 -138,-60 -37,-39 -57,-88 -57,-142z"/>
  <path id="_2" class="fil1" d="M1032 6023l0 407 -612 0c-63,0 -93,25 -93,76 0,49 30,76 93,76l612 0 0 406 -604 0c-141,0 -260,-47 -356,-140 -97,-94 -146,-208 -146,-343 0,-154 56,-280 169,-372 87,-73 208,-110 365,-110l572 0 0 0z"/>
  <path id="_3" class="fil1" d="M626 5184l420 0c5,33 8,63 8,91 0,163 -54,297 -161,406 -107,110 -241,163 -403,163 -157,0 -290,-54 -400,-165 -110,-108 -164,-241 -164,-400 0,-174 51,-313 153,-413 103,-101 244,-151 421,-151l532 0 0 406 -502 0c-58,0 -103,14 -137,42 -33,27 -51,65 -51,112 0,41 15,79 46,109 32,30 69,47 111,47 45,0 82,-14 111,-42 29,-29 43,-64 43,-107 0,-35 -9,-68 -27,-98l0 0z"/>
  <polygon id="_4" class="fil1" points="-451,4072 1032,4072 1032,4479 -451,4479 "/>
 </g>
</svg>
