<?xml version="1.0" encoding="UTF-8"?>
<!DOCTYPE svg PUBLIC "-//W3C//DTD SVG 1.1//EN" "http://www.w3.org/Graphics/SVG/1.1/DTD/svg11.dtd">
<!-- Creator: CorelDRAW X7 -->
<svg xmlns="http://www.w3.org/2000/svg" xml:space="preserve" width="8.5in" height="11in" version="1.1" style="shape-rendering:geometricPrecision; text-rendering:geometricPrecision; image-rendering:optimizeQuality; fill-rule:evenodd; clip-rule:evenodd"
viewBox="0 0 8500 11000"
 xmlns:xlink="http://www.w3.org/1999/xlink">
 <defs>
  <style type="text/css">
   <![CDATA[
    .str0 {stroke:#2B2A29;stroke-width:196.839}
    .fil0 {fill:#FEFEFE}
    .fil1 {fill:#2B2A29;fill-rule:nonzero}
   ]]>
  </style>
 </defs>
 <g id="Слой_x0020_1">
  <metadata id="CorelCorpID_0Corel-Layer"/>
  <path class="fil0 str0" d="M5680 6650c-546,-582 -1046,-1258 -1488,-2012 -185,-314 -378,-653 -529,-1021 -19,-47 -38,-93 -55,-139l-928 0c-183,0 -332,148 -332,332l0 6052c0,184 149,332 332,332l3140 0c183,0 332,-148 332,-332l0 -2901c-22,-9 -45,-17 -66,-26 -154,-66 -292,-161 -406,-285l0 0z"/>
  <path class="fil0 str0" d="M-949 9194l2306 908c112,44 234,-40 234,-161l0 -6190c0,-165 -101,-314 -254,-374l-2297 -905c-117,-45 -245,41 -245,167l0 6180c0,166 102,315 256,375z"/>
  <path class="fil0 str0" d="M8743 4967c-378,606 -822,1177 -1321,1695 -115,120 -250,212 -401,277 -38,16 -75,29 -113,41l0 2861c0,165 101,313 255,374l2296 904c117,45 245,-41 245,-166l0 -6183c0,-165 -102,-313 -255,-374l-301 -117c-129,240 -268,469 -405,688l0 0z"/>
  <path class="fil0 str0" d="M6180 6179c104,110 240,165 377,165 125,0 252,-47 351,-139 7,-6 13,-13 19,-19 464,-482 879,-1014 1234,-1582 116,-185 234,-378 345,-578 288,-526 523,-1099 523,-1688 0,-3914 -6406,-2769 -4678,1141 126,280 281,551 434,813 388,664 843,1295 1368,1859 8,7 19,18 27,28l0 0z"/>
  <path class="fil1" d="M72 7881l440 0 0 186 432 0 0 419 -951 0c-105,0 -197,-18 -271,-54 -96,-47 -174,-117 -235,-211 -60,-95 -91,-193 -91,-295l0 -45 439 0c1,10 1,17 1,21 0,53 18,93 52,122 34,28 83,43 146,43l38 0 0 -186 0 0z"/>
  <path id="_1" class="fil1" d="M-173 7278l1117 0 0 419 -1117 0 0 -419zm-497 208c0,-57 20,-107 59,-147 40,-42 88,-63 142,-63 59,0 107,20 143,58 38,40 56,90 56,152 0,60 -18,111 -56,151 -36,39 -84,58 -143,58 -54,0 -102,-20 -142,-62 -39,-41 -59,-91 -59,-147z"/>
  <path id="_2" class="fil1" d="M944 6038l0 420 -631 0c-65,0 -96,26 -96,78 0,51 31,78 96,78l631 0 0 419 -623 0c-145,0 -268,-49 -367,-144 -100,-97 -150,-215 -150,-354 0,-159 58,-288 174,-383 90,-76 215,-114 376,-114l590 0 0 0z"/>
  <path id="_3" class="fil1" d="M525 5174l433 0c5,34 8,65 8,93 0,168 -55,307 -165,419 -111,113 -249,168 -416,168 -162,0 -299,-56 -412,-170 -113,-112 -169,-249 -169,-412 0,-180 53,-323 158,-426 106,-104 251,-156 434,-156l548 0 0 419 -518 0c-59,0 -106,14 -141,43 -34,28 -52,67 -52,115 0,43 15,82 47,113 33,31 71,48 115,48 46,0 84,-14 114,-43 30,-30 44,-66 44,-110 0,-36 -9,-70 -28,-101l0 0z"/>
  <polygon id="_4" class="fil1" points="-585,4028 944,4028 944,4447 -585,4447 "/>
 </g>
</svg>
