<?xml version="1.0" encoding="UTF-8"?>
<!DOCTYPE svg PUBLIC "-//W3C//DTD SVG 1.1//EN" "http://www.w3.org/Graphics/SVG/1.1/DTD/svg11.dtd">
<!-- Creator: CorelDRAW X7 -->
<svg xmlns="http://www.w3.org/2000/svg" xml:space="preserve" width="1.27083in" height="1.27083in" version="1.1" style="shape-rendering:geometricPrecision; text-rendering:geometricPrecision; image-rendering:optimizeQuality; fill-rule:evenodd; clip-rule:evenodd"
viewBox="0 0 1271 1271"
 xmlns:xlink="http://www.w3.org/1999/xlink">
 <defs>
  <style type="text/css">
   <![CDATA[
    .str0 {stroke:#2B2A29;stroke-width:20.8346}
    .fil0 {fill:white}
   ]]>
  </style>
 </defs>
 <g id="Слой_x0020_1">
  <metadata id="CorelCorpID_0Corel-Layer"/>
  <g id="g3019">
   <path id="path3021" class="fil0 str0" d="M1198 10l-740 0c-34,0 -62,29 -62,63l0 125c0,34 28,62 62,62l740 0c34,0 62,-28 62,-62l0 -125c0,-34 -28,-63 -62,-63z"/>
   <path id="path3023" class="fil0 str0" d="M1198 510l-740 0c-34,0 -62,29 -62,63l0 125c0,34 28,62 62,62l740 0c34,0 62,-28 62,-62l0 -125c0,-34 -28,-63 -62,-63z"/>
   <path id="path3025" class="fil0 str0" d="M1198 1010l-740 0c-34,0 -62,29 -62,63l0 125c0,34 28,62 62,62l740 0c34,0 62,-28 62,-62l0 -125c0,-34 -28,-63 -62,-63z"/>
   <path id="path3027" class="fil0 str0" d="M198 10l-125 0c-34,0 -63,29 -63,63l0 125c0,34 29,62 63,62l125 0c34,0 62,-28 62,-62l0 -125c0,-34 -28,-63 -62,-63z"/>
   <path id="path3029" class="fil0 str0" d="M198 510l-125 0c-34,0 -63,29 -63,63l0 125c0,34 29,62 63,62l125 0c34,0 62,-28 62,-62l0 -125c0,-34 -28,-63 -62,-63z"/>
   <path id="path3031" class="fil0 str0" d="M198 1010l-125 0c-34,0 -63,29 -63,63l0 125c0,34 29,62 63,62l125 0c34,0 62,-28 62,-62l0 -125c0,-34 -28,-63 -62,-63z"/>
  </g>
  <g id="g3033">
  </g>
  <g id="g3035">
  </g>
  <g id="g3037">
  </g>
  <g id="g3039">
  </g>
  <g id="g3041">
  </g>
  <g id="g3043">
  </g>
  <g id="g3045">
  </g>
  <g id="g3047">
  </g>
  <g id="g3049">
  </g>
  <g id="g3051">
  </g>
  <g id="g3053">
  </g>
  <g id="g3055">
  </g>
  <g id="g3057">
  </g>
  <g id="g3059">
  </g>
  <g id="g3061">
  </g>
 </g>
</svg>
