<?xml version="1.0" encoding="UTF-8"?>
<!DOCTYPE svg PUBLIC "-//W3C//DTD SVG 1.1//EN" "http://www.w3.org/Graphics/SVG/1.1/DTD/svg11.dtd">
<!-- Creator: CorelDRAW X7 -->
<svg xmlns="http://www.w3.org/2000/svg" xml:space="preserve" width="1.3125in" height="1.1875in" version="1.1" style="shape-rendering:geometricPrecision; text-rendering:geometricPrecision; image-rendering:optimizeQuality; fill-rule:evenodd; clip-rule:evenodd"
viewBox="0 0 1313 1188"
 xmlns:xlink="http://www.w3.org/1999/xlink">
 <defs>
  <style type="text/css">
   <![CDATA[
    .str0 {stroke:#2B2A29;stroke-width:20.8346}
    .fil0 {fill:white}
   ]]>
  </style>
 </defs>
 <g id="Слой_x0020_1">
  <metadata id="CorelCorpID_0Corel-Layer"/>
  <g id="g3070">
   <path id="path3072" class="fil0 str0" d="M1177 10l-1042 0c-68,0 -125,57 -125,125 0,69 57,125 125,125l1042 0c69,0 125,-56 125,-125 0,-68 -56,-125 -125,-125z"/>
   <path id="path3074" class="fil0 str0" d="M1177 469l-1042 0c-68,0 -125,56 -125,125 0,69 57,125 125,125l1042 0c69,0 125,-56 125,-125 0,-69 -56,-125 -125,-125z"/>
   <path id="path3076" class="fil0 str0" d="M1177 927l-1042 0c-68,0 -125,56 -125,125 0,69 57,125 125,125l1042 0c69,0 125,-56 125,-125 0,-69 -56,-125 -125,-125z"/>
  </g>
  <g id="g3078">
  </g>
  <g id="g3080">
  </g>
  <g id="g3082">
  </g>
  <g id="g3084">
  </g>
  <g id="g3086">
  </g>
  <g id="g3088">
  </g>
  <g id="g3090">
  </g>
  <g id="g3092">
  </g>
  <g id="g3094">
  </g>
  <g id="g3096">
  </g>
  <g id="g3098">
  </g>
  <g id="g3100">
  </g>
  <g id="g3102">
  </g>
  <g id="g3104">
  </g>
  <g id="g3106">
  </g>
 </g>
</svg>
