<?xml version="1.0" encoding="UTF-8"?>
<!DOCTYPE svg PUBLIC "-//W3C//DTD SVG 1.1//EN" "http://www.w3.org/Graphics/SVG/1.1/DTD/svg11.dtd">
<!-- Creator: CorelDRAW X7 -->
<svg xmlns="http://www.w3.org/2000/svg" xml:space="preserve" width="9.79167in" height="9.89583in" version="1.1" style="shape-rendering:geometricPrecision; text-rendering:geometricPrecision; image-rendering:optimizeQuality; fill-rule:evenodd; clip-rule:evenodd"
viewBox="0 0 9792 9896"
 xmlns:xlink="http://www.w3.org/1999/xlink">
 <defs>
  <style type="text/css">
   <![CDATA[
    .str0 {stroke:#2B2A29;stroke-width:20.8346}
    .fil0 {fill:white}
   ]]>
  </style>
 </defs>
 <g id="Слой_x0020_1">
  <metadata id="CorelCorpID_0Corel-Layer"/>
  <g id="g3115">
   <path id="path3117" class="fil0 str0" d="M10 9260c0,345 281,625 625,625l3146 0c345,0 625,-280 625,-625l0 -8625c0,-344 -280,-625 -625,-625l-3146 0c-344,0 -625,281 -625,625l0 8625z"/>
   <path id="path3119" class="fil0 str0" d="M6010 9885l3146 0c345,0 625,-280 625,-625l0 -8625c0,-344 -280,-625 -625,-625l-3146 0c-344,0 -625,281 -625,625l0 8625c0,345 281,625 625,625z"/>
  </g>
  <g id="g3121">
  </g>
  <g id="g3123">
  </g>
  <g id="g3125">
  </g>
  <g id="g3127">
  </g>
  <g id="g3129">
  </g>
  <g id="g3131">
  </g>
  <g id="g3133">
  </g>
  <g id="g3135">
  </g>
  <g id="g3137">
  </g>
  <g id="g3139">
  </g>
  <g id="g3141">
  </g>
  <g id="g3143">
  </g>
  <g id="g3145">
  </g>
  <g id="g3147">
  </g>
  <g id="g3149">
  </g>
 </g>
</svg>
