<?xml version="1.0" encoding="UTF-8"?>
<!DOCTYPE svg PUBLIC "-//W3C//DTD SVG 1.1//EN" "http://www.w3.org/Graphics/SVG/1.1/DTD/svg11.dtd">
<!-- Creator: CorelDRAW X7 -->
<svg xmlns="http://www.w3.org/2000/svg" xml:space="preserve" width="8.5in" height="11in" version="1.1" style="shape-rendering:geometricPrecision; text-rendering:geometricPrecision; image-rendering:optimizeQuality; fill-rule:evenodd; clip-rule:evenodd"
viewBox="0 0 8500 11000"
 xmlns:xlink="http://www.w3.org/1999/xlink">
 <defs>
  <style type="text/css">
   <![CDATA[
    .str0 {stroke:#2B2A29;stroke-width:196.85}
    .str1 {stroke:#2B2A29;stroke-width:6.94488}
    .fil0 {fill:#FEFEFE}
    .fil2 {fill:#2B2A29}
    .fil1 {fill:#2B2A29;fill-rule:nonzero}
   ]]>
  </style>
 </defs>
 <g id="Слой_x0020_1">
  <metadata id="CorelCorpID_0Corel-Layer"/>
  <path class="fil0 str0" d="M5680 6653c-545,-582 -1046,-1258 -1488,-2012 -185,-315 -377,-653 -529,-1021 -19,-47 -37,-94 -55,-140l-928 0c-183,0 -332,149 -332,332l0 6053c0,183 149,332 332,332l3140 0c183,0 332,-149 332,-332l0 -2902c-22,-8 -45,-17 -66,-26 -154,-65 -291,-160 -406,-284z"/>
  <path class="fil0 str0" d="M-950 9197l2307 907c112,45 235,-39 235,-160l0 -6191c0,-165 -101,-313 -255,-374l-2297 -904c-117,-46 -244,40 -244,166l0 6181c0,166 101,314 254,375z"/>
  <path class="fil0 str0" d="M8744 4970c-378,606 -823,1176 -1321,1694 -116,121 -251,213 -402,278 -37,16 -75,28 -113,41l0 2861c0,165 101,313 255,373l2297 905c117,45 244,-41 244,-167l0 -6183c0,-165 -101,-312 -254,-373l-302 -118c-128,241 -268,470 -404,689z"/>
  <path class="fil0 str0" d="M6181 6182c103,110 239,165 376,165 126,0 252,-47 351,-140 7,-6 13,-13 20,-18 464,-483 879,-1014 1234,-1583 116,-184 234,-378 344,-578 288,-526 523,-1099 523,-1687 0,-1367 -1108,-2475 -2475,-2475 -1367,0 -2475,1108 -2475,2475 0,401 113,779 273,1140 125,281 280,551 433,814 389,663 843,1294 1368,1858 8,8 19,19 28,29zm-407 -2703c-401,-255 -666,-703 -666,-1211 -1,-792 642,-1435 1434,-1435 791,0 1434,643 1434,1435 0,542 -301,1014 -745,1258 -100,55 -208,98 -323,128 -117,31 -239,47 -366,47 -155,0 -303,-24 -443,-70 -115,-35 -224,-88 -325,-152z"/>
  <path class="fil1" d="M-157 7664l441 0c0,59 11,99 33,121 22,22 66,36 130,42 216,20 368,103 456,250 47,79 70,190 70,334l0 58 -442 0 0 -20c0,-66 -15,-114 -42,-143 -28,-29 -78,-45 -147,-50 -115,-6 -195,-16 -241,-31 -47,-16 -92,-47 -138,-94 -80,-82 -120,-195 -120,-340l0 -127z"/>
  <path id="1" class="fil1" d="M-585 7154l428 0 0 -188 442 0 0 188c89,0 150,-14 184,-42 33,-28 50,-79 50,-153l440 0c0,22 0,38 0,48 0,95 -22,184 -66,268 -44,84 -103,151 -179,202 -96,64 -223,96 -382,96l-917 0 0 -419z"/>
  <path id="2" class="fil1" d="M525 6140l433 0c5,34 8,66 8,94 0,167 -55,307 -166,419 -110,112 -248,167 -415,167 -162,0 -299,-56 -412,-169 -112,-113 -169,-250 -169,-412 0,-180 53,-323 159,-427 105,-104 250,-156 433,-156l547 0 0 420 -517 0c-59,0 -106,14 -141,42 -35,29 -52,67 -52,115 0,44 16,82 48,113 32,32 70,48 114,48 46,0 84,-14 114,-43 30,-29 45,-66 45,-110 0,-36 -10,-70 -29,-101z"/>
  <path id="3" class="fil1" d="M-184 4802l448 0c-16,29 -24,55 -24,79 0,76 58,113 174,113l529 0 0 420 -610 0c-161,0 -289,-44 -385,-132 -96,-88 -144,-206 -144,-353 0,-32 4,-75 12,-127z"/>
  <path id="4" class="fil1" d="M-585 4305l428 0 0 -188 442 0 0 188c89,0 150,-14 184,-42 33,-28 50,-79 50,-153l440 0c0,22 0,38 0,48 0,95 -22,184 -66,268 -44,84 -103,151 -179,202 -96,64 -223,96 -382,96l-917 0 0 -419z"/>
  <path class="fil2 str1" d="M5108 2268c0,508 265,956 666,1211 101,64 210,117 325,152 140,46 288,70 443,70 127,0 249,-16 366,-47 115,-30 223,-73 323,-128 444,-244 745,-716 745,-1258 0,-792 -643,-1435 -1434,-1435 -792,0 -1435,643 -1434,1435z"/>
 </g>
</svg>
